<svg width="1440" height="1450" viewBox="0 0 1440 1450" fill="none" xmlns="http://www.w3.org/2000/svg">
<g opacity="0.3" filter="url(#filter0_f_19736_20)">
<path fill-rule="evenodd" clip-rule="evenodd" d="M567.982 338.687C550.207 394.528 509.523 437.246 472.674 482.784C440.925 522.019 407.091 556.995 366.777 587.337C321.874 621.134 279.526 668.169 223.394 670.406C167.08 672.65 119.788 630.881 73.2659 599.032C29.5248 569.088 -1.62045 527.828 -39.3261 490.553C-90.932 439.537 -179.993 410.591 -190.088 338.687C-199.847 269.176 -129.006 215.224 -85.7347 159.994C-47.3848 111.045 -4.57846 67.6906 48.0905 34.6831C102.174 0.789252 160.267 -43.0223 223.394 -33.7362C286.417 -24.4652 313.215 56.004 371.282 82.2257C438.977 112.795 539.87 70.6304 585.1 129.602C628.376 186.025 589.559 270.905 567.982 338.687Z" fill="#B1DEFF"/>
</g>
<g opacity="0.3" filter="url(#filter1_f_19736_20)">
<path fill-rule="evenodd" clip-rule="evenodd" d="M663.015 535.194C645.239 591.035 604.555 633.753 567.706 679.291C535.957 718.526 502.123 753.502 461.809 783.844C416.906 817.641 374.558 864.677 318.426 866.913C262.112 869.157 214.821 827.388 168.298 795.54C124.557 765.595 93.4117 724.335 55.706 687.06C4.10007 636.044 -84.9612 607.098 -95.0561 535.194C-104.815 465.683 -33.9736 411.731 9.29739 356.501C47.6473 307.553 90.4536 264.198 143.123 231.19C197.206 197.296 255.299 153.485 318.426 162.771C381.449 172.042 408.247 252.511 466.314 278.733C534.009 309.302 634.902 267.137 680.132 326.109C723.408 382.532 684.591 467.412 663.015 535.194Z" fill="url(#paint0_linear_19736_20)" fill-opacity="0.5"/>
</g>
<g opacity="0.9" filter="url(#filter2_f_19736_20)">
<g opacity="0.3" filter="url(#filter3_f_19736_20)">
<path fill-rule="evenodd" clip-rule="evenodd" d="M1474.55 589.207C1460.56 633.171 1428.53 666.803 1399.52 702.655C1374.52 733.545 1347.88 761.082 1316.14 784.971C1280.79 811.579 1247.45 848.611 1203.26 850.372C1158.92 852.139 1121.69 819.253 1085.06 794.179C1050.62 770.603 1026.1 738.119 996.414 708.772C955.784 668.606 885.666 645.817 877.718 589.207C870.035 534.48 925.809 492.003 959.876 448.52C990.069 409.983 1023.77 375.849 1065.24 349.862C1107.82 323.177 1153.56 288.684 1203.26 295.995C1252.87 303.294 1273.97 366.648 1319.69 387.293C1372.99 411.36 1452.42 378.164 1488.03 424.592C1522.1 469.015 1491.54 535.842 1474.55 589.207Z" fill="url(#paint1_linear_19736_20)" fill-opacity="0.65"/>
</g>
<g opacity="0.3" filter="url(#filter4_f_19736_20)">
<path fill-rule="evenodd" clip-rule="evenodd" d="M1549.37 743.918C1535.38 787.882 1503.35 821.514 1474.34 857.367C1449.34 888.257 1422.7 915.794 1390.96 939.682C1355.61 966.291 1322.27 1003.32 1278.08 1005.08C1233.74 1006.85 1196.51 973.965 1159.88 948.891C1125.44 925.315 1100.92 892.831 1071.23 863.484C1030.6 823.318 960.485 800.529 952.538 743.918C944.854 689.192 1000.63 646.715 1034.7 603.232C1064.89 564.694 1098.59 530.561 1140.06 504.574C1182.64 477.889 1228.38 443.396 1278.08 450.707C1327.69 458.006 1348.79 521.36 1394.51 542.004C1447.81 566.072 1527.24 532.875 1562.85 579.304C1596.92 623.727 1566.36 690.553 1549.37 743.918Z" fill="url(#paint2_linear_19736_20)"/>
</g>
</g>
<defs>
<filter id="filter0_f_19736_20" x="-635" y="-479" width="1683.69" height="1593.49" filterUnits="userSpaceOnUse" color-interpolation-filters="sRGB">
<feFlood flood-opacity="0" result="BackgroundImageFix"/>
<feBlend mode="normal" in="SourceGraphic" in2="BackgroundImageFix" result="shape"/>
<feGaussianBlur stdDeviation="222" result="effect1_foregroundBlur_19736_20"/>
</filter>
<filter id="filter1_f_19736_20" x="-539.968" y="-282.493" width="1683.69" height="1593.49" filterUnits="userSpaceOnUse" color-interpolation-filters="sRGB">
<feFlood flood-opacity="0" result="BackgroundImageFix"/>
<feBlend mode="normal" in="SourceGraphic" in2="BackgroundImageFix" result="shape"/>
<feGaussianBlur stdDeviation="222" result="effect1_foregroundBlur_19736_20"/>
</filter>
<filter id="filter2_f_19736_20" x="822" y="240" width="811.275" height="820.152" filterUnits="userSpaceOnUse" color-interpolation-filters="sRGB">
<feFlood flood-opacity="0" result="BackgroundImageFix"/>
<feBlend mode="normal" in="SourceGraphic" in2="BackgroundImageFix" result="shape"/>
<feGaussianBlur stdDeviation="27.5" result="effect1_foregroundBlur_19736_20"/>
</filter>
<filter id="filter3_f_19736_20" x="433" y="-149" width="1514.46" height="1443.44" filterUnits="userSpaceOnUse" color-interpolation-filters="sRGB">
<feFlood flood-opacity="0" result="BackgroundImageFix"/>
<feBlend mode="normal" in="SourceGraphic" in2="BackgroundImageFix" result="shape"/>
<feGaussianBlur stdDeviation="222" result="effect1_foregroundBlur_19736_20"/>
</filter>
<filter id="filter4_f_19736_20" x="507.82" y="5.71167" width="1514.46" height="1443.44" filterUnits="userSpaceOnUse" color-interpolation-filters="sRGB">
<feFlood flood-opacity="0" result="BackgroundImageFix"/>
<feBlend mode="normal" in="SourceGraphic" in2="BackgroundImageFix" result="shape"/>
<feGaussianBlur stdDeviation="222" result="effect1_foregroundBlur_19736_20"/>
</filter>
<linearGradient id="paint0_linear_19736_20" x1="699.725" y1="514.254" x2="-95.9678" y2="514.253" gradientUnits="userSpaceOnUse">
<stop stop-color="#F8C14F"/>
<stop offset="1" stop-color="#FFA6ED" stop-opacity="0"/>
</linearGradient>
<linearGradient id="paint1_linear_19736_20" x1="1503.46" y1="572.72" x2="877" y2="572.72" gradientUnits="userSpaceOnUse">
<stop stop-color="#F7B73B"/>
<stop offset="1" stop-color="#FFD06D"/>
</linearGradient>
<linearGradient id="paint2_linear_19736_20" x1="1285.93" y1="449.712" x2="1283.78" y2="991.842" gradientUnits="userSpaceOnUse">
<stop stop-color="#47C2FF"/>
<stop offset="1" stop-color="#63CBFE" stop-opacity="0.65"/>
</linearGradient>
</defs>
</svg>
