<svg xmlns="http://www.w3.org/2000/svg" viewBox="0 0 32 32"><path fill="#81d3f7" d="M26.55,5.45h0a6.63,6.63,0,0,0-9.39,0L11.3,11.3l9.4,9.4,5.85-5.86A6.63,6.63,0,0,0,26.55,5.45Z"/><path fill="#5dc4e8" d="M26.55,5.45a6.57,6.57,0,0,0-.81-.69,6.63,6.63,0,0,1-.69,8.57l-5.86,5.86L20.7,20.7l5.85-5.86A6.63,6.63,0,0,0,26.55,5.45Z"/><path fill="#3d0256" d="M11.3 11.8a.54.54 0 0 1-.35-.14A.5.5 0 0 1 11 11l5.86-5.86A7.14 7.14 0 0 1 29 10.44a.5.5 0 0 1-.52.48A.51.51 0 0 1 28 10.4 6.14 6.14 0 0 0 17.51 5.8l-5.85 5.86A.54.54 0 0 1 11.3 11.8zM20.7 21.2a.51.51 0 0 1-.36-.15.51.51 0 0 1 0-.71l5.86-5.85A6.15 6.15 0 0 0 27.73 12a.5.5 0 0 1 .62-.33.49.49 0 0 1 .33.63 7.06 7.06 0 0 1-1.77 2.94l-5.86 5.86A.5.5 0 0 1 20.7 21.2z"/><path fill="#fff" d="M24.87,7.63a.5.5,0,0,1-.36-.14,3.75,3.75,0,0,0-5.31,0,.5.5,0,0,1-.7,0,.5.5,0,0,1,0-.71,4.76,4.76,0,0,1,6.72,0,.51.51,0,0,1,0,.71A.49.49,0,0,1,24.87,7.63Z"/><path fill="#7bff84" d="M11.3,11.3,5.45,17.16a6.63,6.63,0,0,0,0,9.39h0a6.63,6.63,0,0,0,9.39,0L20.7,20.7Z"/><path fill="#4bdd4b" d="M19.19,19.19l-5.86,5.86a6.63,6.63,0,0,1-8.57.69,6.64,6.64,0,0,0,10.08.81L20.7,20.7Z"/><path fill="#3d0256" d="M10.14,29A7.14,7.14,0,0,1,5.09,16.81L11,11a.5.5,0,0,1,.71,0l7.89,7.89a.5.5,0,0,1-.71.71L11.3,12l-5.5,5.5a6.14,6.14,0,0,0,8.69,8.69l5.85-5.86a.51.51,0,0,1,.71,0,.5.5,0,0,1,0,.71l-5.86,5.86A7.12,7.12,0,0,1,10.14,29Z"/></svg>