<svg width="32" height="33" viewBox="0 0 32 33" fill="none" xmlns="http://www.w3.org/2000/svg">
<path fill-rule="evenodd" clip-rule="evenodd" d="M16 0.39209C7.16344 0.39209 0 7.55553 0 16.3921C0 25.2286 7.16344 32.3921 16 32.3921C24.8366 32.3921 32 25.2286 32 16.3921C32 7.55553 24.8366 0.39209 16 0.39209ZM16.5544 14.9503L16.5208 14.3967C16.4201 12.9618 17.3042 11.6511 18.7032 11.1427C19.218 10.9619 20.0909 10.9393 20.6617 11.0975C20.8856 11.1653 21.3108 11.3912 21.613 11.5946L22.1614 11.9675L22.7658 11.7754C23.1015 11.6737 23.5492 11.5042 23.7506 11.3912C23.9409 11.2896 24.1088 11.2331 24.1088 11.267C24.1088 11.459 23.6947 12.1144 23.3477 12.4759C22.8777 12.9844 23.012 13.0296 23.9633 12.6906C24.534 12.4985 24.5452 12.4985 24.4333 12.7132C24.3662 12.8262 24.0192 13.2216 23.6499 13.5832C23.0232 14.2046 22.9896 14.2724 22.9896 14.7922C22.9896 15.5944 22.6091 17.2666 22.2286 18.1818C21.5235 19.8992 20.0126 21.6731 18.5017 22.5657C16.3753 23.8198 13.5438 24.1362 11.16 23.4018C10.3654 23.1532 9 22.5205 9 22.4075C9 22.3736 9.41409 22.3284 9.91772 22.3171C10.9697 22.2945 12.0218 22.0007 12.9171 21.481L13.5214 21.1194L12.8276 20.8822C11.8427 20.5432 10.9585 19.7636 10.7347 19.0292C10.6676 18.7919 10.6899 18.7806 11.3167 18.7806L11.9658 18.7693L11.4174 18.5094C10.7683 18.1818 10.1751 17.6281 9.88414 17.0632C9.6715 16.6564 9.4029 15.6283 9.48124 15.5492C9.50362 15.5153 9.73865 15.5831 10.0072 15.6735C10.7795 15.9559 10.8802 15.8881 10.4325 15.4136C9.59316 14.5549 9.33575 13.2781 9.73865 12.0692L9.92891 11.5268L10.6676 12.2612C12.1784 13.7414 13.9579 14.6227 15.9948 14.8825L16.5544 14.9503Z" fill="#646464"/>
</svg>
